<?xml version="1.0" standalone="no"?>
<!DOCTYPE svg PUBLIC "-//W3C//DTD SVG 20010904//EN"
 "http://www.w3.org/TR/2001/REC-SVG-20010904/DTD/svg10.dtd">
<svg version="1.0" xmlns="http://www.w3.org/2000/svg"
 width="700.000000pt" height="700.000000pt" viewBox="0 0 700.000000 700.000000"
 preserveAspectRatio="xMidYMid meet">
<metadata>
Created by potrace 1.14, written by Peter Selinger 2001-2017
</metadata>
<g transform="translate(0.000000,700.000000) scale(0.100000,-0.100000)"
fill="#000000" stroke="none">
<path d="M5389 6616 c-2 -2 -17 -6 -34 -9 -30 -5 -433 -96 -695 -157 -74 -17
-146 -34 -160 -36 -14 -3 -171 -38 -350 -79 -179 -41 -336 -76 -350 -79 -14
-3 -74 -17 -135 -32 l-110 -27 -1130 -1 -1130 -1 0 -253 0 -253 -35 -9 c-31
-8 -252 -59 -350 -80 -150 -33 -294 -65 -465 -105 -110 -26 -209 -48 -220 -51
-69 -14 -125 -28 -125 -31 0 -2 21 -94 46 -206 25 -111 47 -209 49 -218 10
-47 47 -216 50 -229 4 -14 142 -626 150 -660 2 -8 29 -127 60 -265 31 -137 65
-290 76 -340 11 -49 22 -97 24 -105 2 -8 10 -46 19 -85 8 -38 36 -160 61 -270
25 -110 88 -391 141 -625 53 -234 127 -564 166 -735 38 -170 90 -400 114 -510
25 -110 59 -261 76 -335 17 -74 34 -155 39 -179 5 -23 14 -62 20 -84 6 -23 13
-51 15 -62 14 -71 28 -125 34 -125 4 0 411 101 906 225 494 124 909 228 922
231 12 2 114 28 225 56 l202 51 1620 2 c891 2 1625 3 1630 4 7 1 10 875 9
2614 -1 1436 -2 2617 -3 2622 -1 7 -209 10 -612 10 -534 0 -612 2 -619 15 -4
8 -29 104 -55 213 -43 176 -57 211 -76 193z"/>
</g>
</svg>
